<svg width="50" height="50" viewBox="0 0 50 50" fill="none" xmlns="http://www.w3.org/2000/svg">
<g id="emojione:tropical-drink">
<path id="Vector" d="M44.6877 6.6406C43.0471 2.49998 38.2814 0.468728 34.0627 2.10935C29.8439 3.74998 27.8127 8.43748 29.4533 12.5781C31.1721 16.7187 35.9377 18.75 40.1564 17.1094C44.3752 15.4687 46.4064 10.7812 44.6877 6.6406Z" fill="#64892F"/>
<path id="Vector_2" d="M44.2183 6.87504C42.6558 2.96879 38.1246 1.09379 34.2183 2.65629C30.234 4.21879 28.359 8.59378 29.9215 12.5C31.484 16.4063 36.0152 18.2813 39.9215 16.7188C43.9058 15.1563 45.859 10.7032 44.2183 6.87504Z" fill="#FDFFB8"/>
<path id="Vector_3" d="M34.9219 2.73434C35.1563 2.49997 39.375 2.42184 39.4531 2.89059C39.5313 3.04684 39.6875 3.12497 39.6875 3.28122C39.6094 3.82809 37.3438 8.74997 37.3438 8.74997C37.2656 8.74997 37.0313 8.43747 36.875 8.67184C36.7188 8.82809 34.6094 3.35934 34.6875 3.28122C34.8438 3.12497 34.7656 2.89059 34.9219 2.73434ZM39.2969 16.5625C39.0625 16.7968 34.8438 16.875 34.7656 16.4062C34.6875 16.25 34.5313 16.1718 34.5313 16.0156C34.6094 15.4687 36.875 10.5468 36.875 10.5468C36.9531 10.5468 37.1875 10.8593 37.3438 10.625C37.5 10.4687 39.6094 15.9375 39.5313 16.0156C39.375 16.1718 39.4531 16.4062 39.2969 16.5625ZM44.1406 7.49997C44.4531 7.73434 44.4531 11.7968 43.9844 11.9531C43.8281 12.0312 43.75 12.1875 43.5938 12.1875C42.9688 12.1093 37.9688 9.92184 37.9688 9.92184C37.9688 9.84372 38.2813 9.60934 38.0469 9.45309C37.8906 9.29684 43.5156 7.26559 43.5938 7.34372C43.75 7.42184 43.9844 7.34372 44.1406 7.49997ZM30.0781 11.7187C29.7656 11.4843 29.7656 7.42184 30.2344 7.26559C30.3906 7.18747 30.4688 7.03122 30.625 7.03122C31.25 7.10934 36.25 9.29684 36.25 9.29684C36.25 9.37497 35.9375 9.60934 36.1719 9.76559C36.3281 9.92184 30.7031 11.9531 30.625 11.875C30.4688 11.875 30.2344 11.875 30.0781 11.7187ZM30.7031 6.40622C30.625 6.09372 33.5938 3.12497 33.9844 3.35934C34.1406 3.43747 34.375 3.35934 34.4531 3.43747C34.7656 3.90622 36.7969 8.90622 36.7969 8.90622C36.7188 8.90622 36.4063 8.90622 36.4063 9.14059C36.4844 9.37497 30.9375 6.95309 30.9375 6.87497C30.9375 6.71872 30.7031 6.56247 30.7031 6.40622ZM43.6719 12.9687C43.75 13.2812 40.7813 16.1718 40.3906 16.0156C40.2344 15.9375 40 16.0156 39.9219 15.9375C39.6094 15.4687 37.5781 10.4687 37.5781 10.4687C37.6563 10.4687 37.9688 10.4687 37.9688 10.1562C37.8906 9.92184 43.4375 12.3437 43.4375 12.4218C43.4375 12.6562 43.5938 12.8125 43.6719 12.9687ZM40.4688 3.28122C40.7813 3.20309 43.8281 6.09372 43.5938 6.48434C43.5156 6.64059 43.5938 6.79684 43.4375 6.95309C42.9688 7.26559 37.8125 9.21872 37.8125 9.21872C37.8125 9.14059 37.8125 8.82809 37.5 8.82809C37.2656 8.90622 39.7656 3.51559 39.8438 3.51559C40.1563 3.51559 40.3125 3.35934 40.4688 3.28122ZM33.75 15.9375C33.4375 16.0156 30.3906 13.125 30.625 12.7343C30.7031 12.5781 30.625 12.4218 30.7813 12.2656C31.25 11.9531 36.4063 9.99997 36.4063 9.99997C36.4063 10.0781 36.4063 10.3906 36.7188 10.3906C36.9531 10.3125 34.4531 15.7031 34.375 15.7031C34.0625 15.7031 33.9063 15.8593 33.75 15.9375Z" fill="#CED74D"/>
<path id="Vector_4" d="M18.9844 7.03125C17.0312 5.07812 13.75 5.07812 11.7969 7.03125L4.6875 13.9844L5.78125 15.0781L12.8906 8.125C14.2969 6.71875 16.5625 6.71875 17.9688 8.125L33.5938 23.5156L34.6875 22.4219L18.9844 7.03125Z" fill="#C10259"/>
<path id="Vector_5" opacity="0.8" d="M37.2652 9.6875H17.6558C21.3277 18.2031 10.2339 33.5938 23.1246 36.1719C27.1089 37.5781 26.8746 40.7813 25.5464 43.9063C24.1402 47.1875 20.9371 47.7344 20.8589 47.8125C20.7808 47.8906 20.7027 48.0469 20.7027 48.2031C20.7027 48.3594 20.7808 48.5156 20.9371 48.5156H33.9058C33.9839 48.5156 34.0621 48.3594 34.1402 48.2031C34.1402 48.0469 34.0621 47.8125 33.9839 47.8125C33.9839 47.8125 30.7027 47.1875 29.2964 43.9063C27.9683 40.8594 27.8121 37.5781 31.7183 36.1719C44.6871 33.5156 33.5933 18.125 37.2652 9.6875ZM27.4996 35.0781C11.1714 35.0781 22.6558 18.6719 19.2964 10.3125H35.7027C32.3433 18.6719 43.8277 35.0781 27.4996 35.0781Z" fill="#A1B8C7"/>
<g id="Group" opacity="0.8">
<path id="Vector_6" d="M19.6876 25.2344C19.2189 30.0001 20.0783 33.8282 27.422 33.8282C33.5158 33.8282 35.1564 31.1719 35.2345 27.5001C30.3908 28.4376 26.0158 24.2188 19.6876 25.2344Z" fill="#F65500"/>
<path id="Vector_7" d="M35.3125 27.5782C35.3906 24.8438 34.6094 21.5626 34.2187 18.5157C30 18.6719 26.0937 15.6251 20.8594 15.9376C20.7812 18.9063 20 22.2657 19.6875 25.2344C26.0156 24.2188 30.3906 28.4376 35.3125 27.5782Z" fill="#FCB334"/>
</g>
</g>
</svg>
