<svg width="50" height="50" viewBox="0 0 50 50" fill="none" xmlns="http://www.w3.org/2000/svg">
<path d="M18.107 48.3555C1.10286 45.8514 1.38898 28.7764 1.38898 23.6111H48.6112C48.6112 26.2694 48.732 45.5139 30.382 48.4972C27.5459 48.9583 21.4126 48.843 18.107 48.3555Z" fill="#292F33"/>
<path d="M46.3718 18.3986C49.7982 10.6569 34.801 11.1013 31.0454 12.3124C29.0386 12.0782 27.02 11.9604 24.9996 11.9597C11.9593 11.9597 1.38846 16.443 1.38846 23.6874C1.38846 25.0888 1.79263 26.4361 2.52457 27.7027C-3.48515 35.6361 8.42179 37.1277 15.2801 35.6333C18.2468 36.3791 21.5301 36.8055 24.9996 36.8055C38.0398 36.8055 48.6107 30.9319 48.6107 23.6888C48.6107 21.7027 47.7926 19.9333 46.3718 18.3986Z" fill="#66757F"/>
<path d="M25.0003 34.7223C36.5063 34.7223 45.8337 30.3695 45.8337 25.0001C45.8337 19.6306 36.5063 15.2778 25.0003 15.2778C13.4944 15.2778 4.16699 19.6306 4.16699 25.0001C4.16699 30.3695 13.4944 34.7223 25.0003 34.7223Z" fill="#FFCC4D"/>
<path d="M5.55588 22.2222C4.8031 19.2097 8.33365 13.8889 15.2781 15.2778C16.667 13.8889 19.2198 12.5 23.6114 12.5C26.3892 12.5 31.4059 14.9653 29.167 19.4444C27.7781 22.2222 22.2225 26.3889 15.2781 23.6111C13.8892 25 6.94476 27.7778 5.55588 22.2222Z" fill="#77B255"/>
<path d="M16.6663 23.6111C16.3204 23.6611 16.0121 23.7125 15.7246 23.7653C22.4579 26.1903 27.8079 22.1611 29.1663 19.4444C30.6635 16.45 28.9149 14.3611 26.7621 13.3014C27.3093 15.8319 25.1954 22.3931 16.6663 23.6111Z" fill="#5C913B"/>
<path d="M6.9443 22.2223C7.67347 20.3987 13.8887 18.0556 20.8332 26.3889C22.2221 27.7778 27.2026 28.5917 29.1665 30.5556C30.5554 31.9445 29.1665 33.3334 23.611 33.3334C18.0554 33.3334 4.16652 29.1667 6.9443 22.2223Z" fill="#D99E82"/>
<path d="M8.39062 27.8027C11.9295 31.3347 19.7656 33.3333 23.6115 33.3333C29.167 33.3333 30.5559 31.9444 29.167 30.5555C28.7142 30.1027 28.0976 29.7125 27.4059 29.3611C22.9559 31.768 11.1837 29.1611 8.39062 27.8027Z" fill="#B27962"/>
<path d="M37.5 26.3903C37.2097 26.3903 36.9125 26.3431 36.6209 26.2459L32.4542 24.857C31.7552 24.624 31.1775 24.1229 30.848 23.4639C30.5185 22.8049 30.4643 22.0421 30.6972 21.3431C30.9302 20.6442 31.4313 20.0664 32.0903 19.7369C32.7493 19.4074 33.5122 19.3532 34.2111 19.5862L38.3778 20.9751C39.0052 21.1824 39.5381 21.6065 39.8809 22.1714C40.2237 22.7362 40.354 23.4048 40.2482 24.057C40.1425 24.7092 39.8078 25.3024 39.3041 25.7301C38.8004 26.1577 38.1608 26.3918 37.5 26.3903ZM36.1111 30.5556H33.3334C32.965 30.5556 32.6117 30.4093 32.3513 30.1488C32.0908 29.8883 31.9445 29.5351 31.9445 29.1667C31.9445 28.7984 32.0908 28.4451 32.3513 28.1846C32.6117 27.9242 32.965 27.7778 33.3334 27.7778H36.1111C36.4795 27.7778 36.8328 27.9242 37.0932 28.1846C37.3537 28.4451 37.5 28.7984 37.5 29.1667C37.5 29.5351 37.3537 29.8883 37.0932 30.1488C36.8328 30.4093 36.4795 30.5556 36.1111 30.5556Z" fill="#FFE8B6"/>
</svg>
